<svg width="431" height="493" viewBox="0 0 431 493" fill="none" xmlns="http://www.w3.org/2000/svg">
<rect width="375" height="812" transform="translate(27 27)" fill="#212124"/>
<g filter="url(#filter0_d_22_515)">
<path d="M97.9433 328.36H119.447V336.68H97.9433V328.36ZM98.7113 353H88.3433V308.2H122.199V316.52H98.7113V353ZM128.514 353V318.568H138.498V353H128.514ZM133.506 313.768C131.672 313.768 130.178 313.235 129.026 312.168C127.874 311.101 127.298 309.779 127.298 308.2C127.298 306.621 127.874 305.299 129.026 304.232C130.178 303.165 131.672 302.632 133.506 302.632C135.341 302.632 136.834 303.144 137.986 304.168C139.138 305.149 139.714 306.429 139.714 308.008C139.714 309.672 139.138 311.059 137.986 312.168C136.877 313.235 135.384 313.768 133.506 313.768ZM168.692 318.056C171.423 318.056 173.855 318.611 175.988 319.72C178.164 320.787 179.871 322.451 181.108 324.712C182.346 326.931 182.964 329.789 182.964 333.288V353H172.98V334.824C172.98 332.051 172.362 330.003 171.124 328.68C169.93 327.357 168.223 326.696 166.004 326.696C164.426 326.696 162.996 327.037 161.716 327.72C160.479 328.36 159.498 329.363 158.772 330.728C158.09 332.093 157.748 333.843 157.748 335.976V353H147.764V318.568H157.3V328.104L155.508 325.224C156.746 322.92 158.516 321.149 160.82 319.912C163.124 318.675 165.748 318.056 168.692 318.056ZM213.134 353V346.28L212.494 344.808V332.776C212.494 330.643 211.833 328.979 210.51 327.784C209.23 326.589 207.246 325.992 204.558 325.992C202.724 325.992 200.91 326.291 199.118 326.888C197.369 327.443 195.876 328.211 194.638 329.192L191.054 322.216C192.932 320.893 195.193 319.869 197.838 319.144C200.484 318.419 203.172 318.056 205.902 318.056C211.15 318.056 215.225 319.293 218.126 321.768C221.028 324.243 222.478 328.104 222.478 333.352V353H213.134ZM202.638 353.512C199.95 353.512 197.646 353.064 195.726 352.168C193.806 351.229 192.334 349.971 191.31 348.392C190.286 346.813 189.774 345.043 189.774 343.08C189.774 341.032 190.265 339.24 191.246 337.704C192.27 336.168 193.87 334.973 196.046 334.12C198.222 333.224 201.06 332.776 204.558 332.776H213.71V338.6H205.646C203.3 338.6 201.678 338.984 200.782 339.752C199.929 340.52 199.502 341.48 199.502 342.632C199.502 343.912 199.993 344.936 200.974 345.704C201.998 346.429 203.385 346.792 205.134 346.792C206.798 346.792 208.292 346.408 209.614 345.64C210.937 344.829 211.897 343.656 212.494 342.12L214.03 346.728C213.305 348.947 211.982 350.632 210.062 351.784C208.142 352.936 205.668 353.512 202.638 353.512ZM252.442 318.056C255.173 318.056 257.605 318.611 259.738 319.72C261.914 320.787 263.621 322.451 264.858 324.712C266.096 326.931 266.714 329.789 266.714 333.288V353H256.73V334.824C256.73 332.051 256.112 330.003 254.874 328.68C253.68 327.357 251.973 326.696 249.754 326.696C248.176 326.696 246.746 327.037 245.466 327.72C244.229 328.36 243.248 329.363 242.522 330.728C241.84 332.093 241.498 333.843 241.498 335.976V353H231.514V318.568H241.05V328.104L239.258 325.224C240.496 322.92 242.266 321.149 244.57 319.912C246.874 318.675 249.498 318.056 252.442 318.056ZM292.654 353.512C288.942 353.512 285.636 352.765 282.734 351.272C279.833 349.736 277.55 347.624 275.886 344.936C274.265 342.248 273.454 339.197 273.454 335.784C273.454 332.328 274.265 329.277 275.886 326.632C277.55 323.944 279.833 321.853 282.734 320.36C285.636 318.824 288.942 318.056 292.654 318.056C296.281 318.056 299.438 318.824 302.126 320.36C304.814 321.853 306.798 324.008 308.078 326.824L300.334 330.984C299.438 329.363 298.308 328.168 296.942 327.4C295.62 326.632 294.169 326.248 292.59 326.248C290.884 326.248 289.348 326.632 287.982 327.4C286.617 328.168 285.529 329.256 284.718 330.664C283.95 332.072 283.566 333.779 283.566 335.784C283.566 337.789 283.95 339.496 284.718 340.904C285.529 342.312 286.617 343.4 287.982 344.168C289.348 344.936 290.884 345.32 292.59 345.32C294.169 345.32 295.62 344.957 296.942 344.232C298.308 343.464 299.438 342.248 300.334 340.584L308.078 344.808C306.798 347.581 304.814 349.736 302.126 351.272C299.438 352.765 296.281 353.512 292.654 353.512ZM317.679 365.928C315.887 365.928 314.116 365.651 312.367 365.096C310.617 364.541 309.188 363.773 308.079 362.792L311.727 355.688C312.495 356.371 313.369 356.904 314.351 357.288C315.375 357.672 316.377 357.864 317.359 357.864C318.767 357.864 319.876 357.523 320.687 356.84C321.54 356.2 322.308 355.112 322.991 353.576L324.783 349.352L325.551 348.264L337.903 318.568H347.503L331.951 355.112C330.841 357.885 329.561 360.061 328.111 361.64C326.703 363.219 325.124 364.328 323.375 364.968C321.668 365.608 319.769 365.928 317.679 365.928ZM323.567 354.344L308.207 318.568H318.511L330.415 347.368L323.567 354.344Z" fill="#24FF96" fill-opacity="0.75" shape-rendering="crispEdges"/>
</g>
<path fill-rule="evenodd" clip-rule="evenodd" d="M428 300V781.956C428 810.484 425.03 820.829 419.452 831.259C413.874 841.689 405.689 849.874 395.259 855.452C384.829 861.03 374.484 864 345.956 864H85.0443C56.5157 864 46.1706 861.03 35.7409 855.452C25.3113 849.874 17.1261 841.689 11.5482 831.259C5.97042 820.829 3 810.484 3 781.956V321C1.34315 321 0 319.657 0 318V260C0 258.343 1.34315 257 3 257V242C1.34315 242 0 240.657 0 239V181C0 179.343 1.34315 178 3 178V151C1.34315 151 0 149.657 0 148V120C0 118.343 1.34315 117 3 117V82.0443C3 53.5157 5.97042 43.1706 11.5482 32.7409C17.1261 22.3113 25.3113 14.1261 35.7409 8.54825C46.1706 2.97042 56.5157 0 85.0443 0H345.956C374.484 0 384.829 2.97042 395.259 8.54825C405.689 14.1261 413.874 22.3113 419.452 32.7409C425.03 43.1706 428 53.5157 428 82.0443V199C429.657 199 431 200.343 431 202V297C431 298.657 429.657 300 428 300ZM27 87.8C27 66.518 27 55.877 31.1418 47.7484C34.7849 40.5982 40.5982 34.7849 47.7484 31.1418C55.877 27 66.518 27 87.8 27L103 27C106.684 27.0098 109.732 29.865 109.998 33.4837C110.14 38.4568 111.1 42.1066 112.785 45.2569C114.615 48.6791 117.301 51.3649 120.723 53.1951C124.145 55.0253 128.157 56 133.814 56H295.146C300.803 56 304.815 55.0253 308.237 53.1951C311.659 51.3649 314.345 48.6791 316.175 45.2569C317.857 42.1117 318.817 38.4686 318.961 33.5079C319.216 29.8778 322.269 27.0098 325.961 27L341.2 27C362.482 27 373.123 27 381.252 31.1418C388.402 34.7849 394.215 40.5982 397.858 47.7484C402 55.877 402 66.518 402 87.8V778.2C402 799.482 402 810.123 397.858 818.252C394.215 825.402 388.402 831.215 381.252 834.858C373.123 839 362.482 839 341.2 839H87.8C66.518 839 55.877 839 47.7484 834.858C40.5982 831.215 34.7849 825.402 31.1418 818.252C27 810.123 27 799.482 27 778.2V87.8Z" fill="black"/>
<path fill-rule="evenodd" clip-rule="evenodd" d="M261 42C264.866 42 268 38.866 268 35C268 31.134 264.866 28 261 28C257.134 28 254 31.134 254 35C254 38.866 257.134 42 261 42Z" fill="#232323"/>
<rect x="189" y="31" width="52" height="8" rx="4" fill="#232323"/>
<defs>
<filter id="filter0_d_22_515" x="84.3433" y="302.632" width="267.159" height="71.296" filterUnits="userSpaceOnUse" color-interpolation-filters="sRGB">
<feFlood flood-opacity="0" result="BackgroundImageFix"/>
<feColorMatrix in="SourceAlpha" type="matrix" values="0 0 0 0 0 0 0 0 0 0 0 0 0 0 0 0 0 0 127 0" result="hardAlpha"/>
<feOffset dy="4"/>
<feGaussianBlur stdDeviation="2"/>
<feComposite in2="hardAlpha" operator="out"/>
<feColorMatrix type="matrix" values="0 0 0 0 0 0 0 0 0 0 0 0 0 0 0 0 0 0 0.25 0"/>
<feBlend mode="normal" in2="BackgroundImageFix" result="effect1_dropShadow_22_515"/>
<feBlend mode="normal" in="SourceGraphic" in2="effect1_dropShadow_22_515" result="shape"/>
</filter>
</defs>
</svg>
