<svg width="20" height="23" viewBox="0 0 20 23" fill="none" xmlns="http://www.w3.org/2000/svg">
<path fill-rule="evenodd" clip-rule="evenodd" d="M18.4945 19.0943C19.1995 18.0929 19.4623 17.581 20 16.4572C16.0332 15.0551 15.4 9.79196 19.319 7.77792C18.1241 6.37589 16.4395 5.56361 14.8504 5.56361C13.7033 5.56361 12.9148 5.8418 12.2098 6.09773C11.6124 6.30915 11.0747 6.4983 10.4056 6.4983C9.68875 6.4983 9.0555 6.28689 8.3864 6.06435C7.65757 5.81955 6.89284 5.56361 5.93699 5.56361C4.15672 5.56361 2.25697 6.57619 1.05021 8.31204C-0.646426 10.76 -0.347723 15.3444 2.3884 19.2612C3.36815 20.6633 4.68245 22.2322 6.39103 22.2545C7.10792 22.2656 7.57389 22.0653 8.0877 21.8539C8.67316 21.6091 9.30641 21.342 10.4176 21.342C11.5288 21.3309 12.1501 21.6091 12.7355 21.8539C13.2374 22.0653 13.6914 22.2656 14.3963 22.2545C16.1288 22.2322 17.5148 20.4963 18.4945 19.0943Z" fill="white"/>
<path fill-rule="evenodd" clip-rule="evenodd" d="M14.5999 0C14.791 1.224 14.2534 2.43687 13.5484 3.28254C12.7957 4.19498 11.4814 4.90711 10.2149 4.8626C9.98788 3.68311 10.5733 2.47023 11.2902 1.65795C12.0908 0.767768 13.4409 0.0778906 14.5999 0Z" fill="white"/>
</svg>
