<svg width="26" height="29" viewBox="0 0 26 29" fill="none" xmlns="http://www.w3.org/2000/svg">
<path d="M11.5555 23.1111V27.4444C11.5555 28.2389 10.9055 28.8889 10.1111 28.8889C9.31663 28.8889 8.66663 28.2389 8.66663 27.4444V23.1111H11.5555Z" fill="#23C779"/>
<path d="M17.3333 23.1111V27.4444C17.3333 28.2389 16.6833 28.8889 15.8889 28.8889C15.0945 28.8889 14.4445 28.2389 14.4445 27.4444V23.1111H17.3333Z" fill="#23C779"/>
<path d="M20.2223 13V20.2222C20.2223 21.8111 18.9223 23.1111 17.3334 23.1111H8.66672C7.07783 23.1111 5.77783 21.8111 5.77783 20.2222V13C5.77783 11.4111 7.07783 10.1111 8.66672 10.1111H17.3334C18.9223 10.1111 20.2223 11.4111 20.2223 13Z" fill="#23C779"/>
<path d="M2.88889 13V18.7778C2.88889 19.5722 2.23889 20.2222 1.44444 20.2222C0.65 20.2222 0 19.5722 0 18.7778V13C0 12.2056 0.65 11.5556 1.44444 11.5556C2.23889 11.5556 2.88889 12.2056 2.88889 13Z" fill="#23C779"/>
<path d="M26.0001 13V18.7778C26.0001 19.5722 25.3501 20.2222 24.5557 20.2222C23.7612 20.2222 23.1112 19.5722 23.1112 18.7778V13C23.1112 12.2056 23.7612 11.5556 24.5557 11.5556C25.3501 11.5556 26.0001 12.2056 26.0001 13Z" fill="#23C779"/>
<path d="M9.53325 8.0889H16.4666C17.7377 8.0889 18.7777 7.04889 18.7777 5.77778C18.7777 2.58556 16.1922 0 12.9999 0C9.80772 0 7.22217 2.58556 7.22217 5.77778C7.22217 7.04889 8.26214 8.0889 9.53325 8.0889Z" fill="#23C779"/>
</svg>
